<?xml version="1.0" standalone="no"?>
<!DOCTYPE svg PUBLIC "-//W3C//DTD SVG 20010904//EN"
 "http://www.w3.org/TR/2001/REC-SVG-20010904/DTD/svg10.dtd">
<svg version="1.0" xmlns="http://www.w3.org/2000/svg"
 width="2048.000000pt" height="2204.000000pt" viewBox="0 0 2048.000000 2204.000000"
 preserveAspectRatio="xMidYMid meet">

<g transform="translate(0.000000,2204.000000) scale(0.100000,-0.100000)"
fill="#000000" stroke="none">
<path d="M5180 15123 l0 -983 408 -2 407 -3 0 -3240 0 -3240 -407 -3 -408 -2
0 -980 0 -980 2415 0 2415 0 0 980 0 980 -462 2 -463 3 -3 1123 -2 1122 1417
-2 1418 -3 0 -1120 0 -1120 -440 -5 -440 -5 -3 -977 -2 -978 2425 0 2425 0 0
980 0 980 -430 0 -430 0 0 3245 0 3245 430 0 430 0 -2 983 c-3 928 -4 982 -20
981 -10 -1 -1100 -2 -2423 -3 l-2405 -1 2 -977 3 -978 437 -3 438 -2 5 -23 c3
-12 4 -517 3 -1122 l-3 -1100 -1418 -3 -1417 -2 2 1122 3 1123 463 3 462 2 0
980 0 980 -2415 2 -2415 3 0 -982z"/>
</g>
</svg>
