<svg id="svg" version="1.1" xmlns="http://www.w3.org/2000/svg" xmlns:xlink="http://www.w3.org/1999/xlink" width="400" height="400" viewBox="0, 0, 400,400"><g id="svgg"><path id="path0" d="M84.130 113.376 C 73.459 116.712,72.247 130.692,82.175 135.931 L 84.200 137.000 161.874 137.104 C 239.246 137.208,239.557 137.205,241.733 136.391 C 252.990 132.179,252.141 116.967,240.440 113.234 C 238.279 112.544,86.348 112.682,84.130 113.376 M84.130 163.376 C 73.459 166.712,72.247 180.692,82.175 185.931 L 84.200 187.000 136.870 187.106 C 189.100 187.211,189.557 187.205,191.728 186.392 C 203.031 182.163,202.187 166.982,190.440 163.234 C 188.290 162.548,86.343 162.684,84.130 163.376 " stroke="none" fill="#fbfbfb" fill-rule="evenodd"></path><path id="path1" d="M246.378 133.900 L 245.000 135.400 246.500 134.022 C 247.896 132.738,248.184 132.400,247.878 132.400 C 247.812 132.400,247.137 133.075,246.378 133.900 M349.334 151.133 C 349.049 151.590,348.856 154.180,348.821 157.991 C 348.791 161.360,348.622 164.405,348.446 164.758 C 348.270 165.111,348.082 166.389,348.028 167.598 C 347.974 168.807,347.721 169.929,347.465 170.092 C 347.145 170.296,347.187 170.392,347.600 170.400 C 347.975 170.408,348.041 170.522,347.776 170.706 C 347.543 170.868,347.302 171.899,347.240 172.999 C 347.178 174.098,347.000 175.088,346.845 175.199 C 346.689 175.309,346.520 176.018,346.469 176.773 C 346.418 177.529,346.156 178.418,345.888 178.750 C 345.502 179.228,345.504 179.291,345.900 179.053 C 346.175 178.888,346.400 178.933,346.400 179.153 C 346.400 179.373,346.220 179.664,346.000 179.800 C 345.780 179.936,345.600 180.677,345.600 181.447 C 345.600 182.217,345.465 182.764,345.300 182.662 C 345.135 182.561,344.948 183.215,344.885 184.116 C 344.821 185.018,344.613 185.945,344.423 186.178 C 344.232 186.410,343.964 187.311,343.828 188.180 C 343.691 189.049,343.343 190.232,343.056 190.809 C 342.768 191.386,342.577 192.160,342.631 192.529 C 342.685 192.898,342.565 193.200,342.365 193.200 C 342.164 193.200,342.000 193.729,342.000 194.376 C 342.000 195.023,341.820 195.664,341.600 195.800 C 341.380 195.936,341.200 196.361,341.200 196.744 C 341.200 197.619,340.301 199.593,339.900 199.597 C 339.735 199.599,339.600 200.052,339.600 200.605 C 339.600 201.158,339.420 201.968,339.200 202.405 C 338.980 202.842,338.620 203.558,338.400 203.995 C 338.180 204.432,338.000 205.062,338.000 205.395 C 338.000 205.728,337.820 206.000,337.600 206.000 C 337.380 206.000,337.200 206.360,337.200 206.800 C 337.200 207.240,337.020 207.600,336.800 207.600 C 336.580 207.600,336.400 207.872,336.400 208.205 C 336.400 208.538,336.232 209.123,336.026 209.505 C 335.821 209.887,335.417 210.785,335.129 211.500 C 334.840 212.215,334.469 212.800,334.302 212.800 C 334.136 212.800,334.000 213.053,334.000 213.362 C 334.000 214.243,332.308 217.190,331.935 216.960 C 331.751 216.846,331.600 217.224,331.600 217.800 C 331.600 218.376,331.457 218.759,331.283 218.651 C 331.109 218.544,330.937 218.845,330.901 219.322 C 330.865 219.798,330.648 220.251,330.418 220.327 C 330.188 220.404,330.000 220.722,330.000 221.033 C 330.000 221.345,329.820 221.600,329.600 221.600 C 329.380 221.600,329.194 221.915,329.187 222.300 C 329.172 223.130,328.233 224.471,327.860 224.194 C 327.717 224.087,327.682 224.112,327.783 224.250 C 328.046 224.608,326.402 227.707,325.642 228.286 C 325.289 228.555,325.142 228.780,325.316 228.787 C 325.489 228.794,325.264 229.194,324.816 229.675 C 324.367 230.157,324.000 230.787,324.000 231.075 C 324.000 231.364,323.820 231.600,323.600 231.600 C 323.380 231.600,323.200 231.881,323.200 232.224 C 323.200 232.567,323.020 232.736,322.800 232.600 C 322.580 232.464,322.400 232.734,322.400 233.200 C 322.400 233.666,322.220 233.936,322.000 233.800 C 321.780 233.664,321.600 233.833,321.600 234.176 C 321.600 234.519,321.420 234.800,321.200 234.800 C 320.980 234.800,320.799 235.025,320.798 235.300 C 320.797 235.575,320.257 236.375,319.598 237.078 C 318.939 237.781,318.398 238.501,318.396 238.678 C 318.393 238.855,317.583 239.876,316.596 240.947 C 315.608 242.018,314.797 243.008,314.794 243.147 C 314.779 243.718,312.488 245.957,312.192 245.690 C 312.016 245.530,311.986 245.600,312.125 245.844 C 312.264 246.088,311.843 246.764,311.189 247.347 C 310.535 247.929,310.000 248.685,310.000 249.027 C 310.000 249.368,309.820 249.536,309.600 249.400 C 309.380 249.264,309.200 249.341,309.200 249.572 C 309.200 249.802,306.950 252.256,304.200 255.024 C 301.450 257.792,299.200 259.955,299.200 259.832 C 299.200 259.708,298.686 260.146,298.057 260.804 C 297.428 261.462,296.718 262.000,296.480 262.000 C 296.242 262.000,295.919 262.208,295.762 262.462 C 295.574 262.765,295.669 262.824,296.038 262.632 C 296.347 262.472,296.072 262.753,295.426 263.257 C 294.781 263.762,293.662 264.765,292.940 265.487 C 292.217 266.209,291.504 266.800,291.355 266.800 C 291.205 266.800,290.207 267.619,289.137 268.621 C 288.022 269.663,286.995 270.320,286.733 270.159 C 286.452 269.985,286.386 270.054,286.562 270.338 C 286.733 270.615,286.587 270.800,286.200 270.800 C 285.844 270.800,285.664 270.980,285.800 271.200 C 285.936 271.420,285.767 271.600,285.424 271.600 C 285.081 271.600,284.800 271.780,284.800 272.000 C 284.800 272.220,284.530 272.400,284.200 272.400 C 283.870 272.400,283.600 272.580,283.600 272.800 C 283.600 273.020,283.412 273.200,283.182 273.200 C 282.952 273.200,282.310 273.653,281.756 274.208 C 281.202 274.762,280.580 275.111,280.374 274.984 C 280.168 274.857,280.000 274.922,280.000 275.128 C 280.000 275.334,279.462 275.726,278.805 275.998 C 278.148 276.270,277.705 276.647,277.821 276.835 C 277.938 277.023,277.559 277.295,276.980 277.441 C 276.402 277.586,275.472 278.128,274.914 278.645 C 274.356 279.162,273.775 279.508,273.623 279.414 C 273.470 279.320,273.093 279.593,272.785 280.021 C 272.476 280.450,272.071 280.800,271.884 280.800 C 271.697 280.800,270.759 281.340,269.800 282.000 C 268.841 282.660,267.728 283.203,267.328 283.206 C 266.712 283.211,266.692 283.272,267.200 283.600 C 267.685 283.914,267.628 283.989,266.900 283.994 C 266.405 283.997,266.000 284.180,266.000 284.400 C 266.000 284.620,265.640 284.800,265.200 284.800 C 264.760 284.800,264.400 284.980,264.400 285.200 C 264.400 285.420,264.029 285.600,263.576 285.600 C 263.123 285.600,262.864 285.780,263.000 286.000 C 263.136 286.220,262.877 286.400,262.424 286.400 C 261.971 286.400,261.600 286.580,261.600 286.800 C 261.600 287.020,261.240 287.200,260.800 287.200 C 260.360 287.200,260.000 287.380,260.000 287.600 C 260.000 287.820,259.629 288.000,259.176 288.000 C 258.723 288.000,258.464 288.180,258.600 288.400 C 258.815 288.748,258.004 288.990,257.100 288.847 C 256.935 288.821,256.800 288.980,256.800 289.200 C 256.800 289.420,256.410 289.600,255.933 289.600 C 255.457 289.600,255.190 289.723,255.340 289.873 C 255.697 290.230,252.729 291.603,252.246 291.305 C 252.043 291.179,252.005 291.284,252.162 291.538 C 252.331 291.812,252.193 292.000,251.824 292.000 C 251.481 292.000,251.200 292.201,251.200 292.447 C 251.200 292.701,250.845 292.800,250.376 292.678 C 249.857 292.542,249.465 292.685,249.320 293.063 C 249.185 293.415,248.781 293.584,248.345 293.470 C 247.936 293.363,247.493 293.449,247.362 293.662 C 247.167 293.978,245.693 294.692,244.800 294.904 C 244.690 294.930,244.163 295.178,243.629 295.455 C 243.094 295.732,242.509 295.868,242.329 295.756 C 242.148 295.644,242.000 295.743,242.000 295.976 C 242.000 296.209,241.640 296.400,241.200 296.400 C 240.760 296.400,240.400 296.541,240.400 296.713 C 240.400 296.885,239.545 297.275,238.500 297.580 C 237.455 297.885,236.330 298.263,236.000 298.421 C 235.670 298.578,234.950 298.885,234.400 299.104 C 233.850 299.322,232.897 299.703,232.281 299.950 C 231.666 300.198,230.721 300.400,230.181 300.400 C 229.642 300.400,229.200 300.557,229.200 300.748 C 229.200 300.939,228.345 301.326,227.300 301.607 C 226.255 301.888,225.229 302.271,225.020 302.459 C 224.811 302.647,224.136 302.800,223.520 302.800 C 222.904 302.800,222.400 302.980,222.400 303.200 C 222.400 303.420,221.680 303.600,220.800 303.600 C 219.920 303.600,219.200 303.780,219.200 304.000 C 219.200 304.220,218.660 304.400,218.000 304.400 C 217.340 304.400,216.800 304.543,216.800 304.718 C 216.800 304.893,216.125 305.081,215.300 305.136 C 214.475 305.190,213.740 305.407,213.667 305.618 C 213.593 305.828,212.728 306.000,211.743 306.000 C 210.651 306.000,210.049 306.156,210.200 306.400 C 210.351 306.644,209.737 306.800,208.624 306.800 C 207.621 306.800,206.800 306.980,206.800 307.200 C 206.800 307.420,205.889 307.600,204.776 307.600 C 203.529 307.600,202.848 307.753,203.000 308.000 C 203.153 308.248,202.404 308.400,201.024 308.400 C 199.801 308.400,198.800 308.561,198.800 308.759 C 198.800 308.956,197.855 309.114,196.700 309.109 C 195.545 309.104,193.816 309.314,192.857 309.577 C 191.899 309.839,190.549 310.017,189.857 309.972 C 189.166 309.926,188.330 309.999,188.000 310.132 C 187.670 310.266,186.206 310.447,184.747 310.535 C 183.288 310.623,181.893 310.819,181.647 310.971 C 181.401 311.123,181.197 311.012,181.194 310.724 C 181.190 310.404,181.073 310.356,180.894 310.600 C 180.476 311.169,180.475 311.169,171.597 311.350 C 167.172 311.441,163.443 311.624,163.309 311.757 C 163.176 311.891,147.179 312.000,127.761 312.000 L 92.455 312.000 92.570 313.081 C 92.633 313.675,92.891 314.230,93.143 314.314 C 93.394 314.398,93.600 314.735,93.600 315.062 C 93.600 315.389,93.825 315.908,94.100 316.215 C 95.149 317.384,96.212 318.977,96.761 320.200 C 96.958 320.640,97.678 321.529,98.360 322.175 C 99.042 322.821,99.600 323.504,99.600 323.693 C 99.600 323.882,100.005 324.453,100.500 324.963 C 100.995 325.473,101.670 326.294,102.000 326.789 C 102.330 327.284,103.095 328.228,103.700 328.887 C 104.305 329.545,104.800 330.218,104.800 330.381 C 104.800 330.914,106.274 332.392,106.541 332.126 C 106.683 331.983,106.800 332.055,106.800 332.285 C 106.800 332.515,107.520 333.445,108.400 334.352 C 109.279 335.258,109.896 336.000,109.769 336.000 C 109.642 336.000,110.047 336.433,110.669 336.963 C 111.291 337.493,113.843 339.923,116.340 342.363 C 118.837 344.803,121.003 346.800,121.155 346.800 C 121.306 346.800,122.389 347.700,123.561 348.800 C 124.732 349.900,125.823 350.800,125.984 350.800 C 126.515 350.800,127.991 352.275,127.726 352.541 C 127.583 352.683,127.697 352.800,127.978 352.800 C 128.260 352.800,129.525 353.565,130.789 354.500 C 134.139 356.977,134.829 357.411,135.235 357.300 C 135.436 357.245,135.600 357.353,135.600 357.540 C 135.600 357.919,139.440 360.400,140.027 360.400 C 140.232 360.400,140.400 360.558,140.400 360.751 C 140.400 360.945,140.940 361.327,141.600 361.600 C 142.260 361.873,142.800 362.255,142.800 362.449 C 142.800 362.642,143.141 362.800,143.557 362.800 C 143.974 362.800,144.403 363.025,144.510 363.300 C 144.618 363.575,145.763 364.340,147.053 365.000 C 148.344 365.660,149.460 366.335,149.533 366.500 C 149.607 366.665,149.932 366.800,150.257 366.800 C 150.582 366.800,150.736 366.980,150.600 367.200 C 150.464 367.420,150.703 367.600,151.131 367.600 C 151.994 367.600,154.088 368.579,153.813 368.854 C 153.717 368.950,154.114 369.068,154.695 369.116 C 155.277 369.164,156.135 369.563,156.602 370.002 C 157.069 370.441,157.740 370.800,158.093 370.800 C 158.446 370.800,159.245 371.067,159.868 371.393 C 163.483 373.287,168.105 375.201,169.076 375.206 C 169.949 375.211,170.066 375.299,169.600 375.600 C 169.145 375.894,169.314 375.989,170.300 375.994 C 171.015 375.997,171.600 376.180,171.600 376.400 C 171.600 376.620,172.140 376.800,172.800 376.800 C 173.460 376.800,174.000 376.980,174.000 377.200 C 174.000 377.420,174.439 377.600,174.976 377.600 C 175.513 377.600,176.064 377.780,176.200 378.000 C 176.336 378.220,176.799 378.400,177.229 378.400 C 177.984 378.400,178.374 378.544,180.295 379.538 C 180.787 379.792,181.631 380.000,182.171 380.000 C 182.711 380.000,183.264 380.180,183.400 380.400 C 183.536 380.620,184.179 380.800,184.829 380.800 C 185.479 380.800,186.323 380.958,186.705 381.151 C 187.861 381.735,190.204 382.400,191.105 382.400 C 191.571 382.400,192.064 382.580,192.200 382.800 C 192.336 383.020,193.146 383.200,194.000 383.200 C 194.854 383.200,195.664 383.380,195.800 383.600 C 195.936 383.820,196.746 384.000,197.600 384.000 C 198.454 384.000,199.264 384.180,199.400 384.400 C 199.536 384.620,200.357 384.800,201.224 384.800 C 202.091 384.800,202.800 384.980,202.800 385.200 C 202.800 385.427,203.973 385.600,205.520 385.600 C 207.016 385.600,208.411 385.764,208.620 385.965 C 208.829 386.165,209.990 386.424,211.200 386.540 C 212.410 386.656,215.740 386.986,218.600 387.272 C 224.484 387.861,389.918 388.014,392.268 387.432 C 392.966 387.260,393.892 386.788,394.326 386.383 C 394.760 385.979,395.224 385.757,395.357 385.891 C 395.491 386.024,395.600 385.910,395.600 385.638 C 395.600 384.926,396.699 383.898,396.880 384.441 C 396.960 384.679,397.289 384.363,397.612 383.737 C 397.935 383.112,398.298 382.510,398.420 382.400 C 400.677 380.363,400.594 370.194,398.300 367.634 C 397.695 366.959,397.200 366.280,397.200 366.125 C 397.200 365.969,395.940 364.629,394.400 363.146 C 392.860 361.663,391.600 360.228,391.600 359.958 C 391.600 359.688,391.491 359.576,391.357 359.709 C 391.040 360.026,390.029 359.091,390.266 358.700 C 390.365 358.535,390.212 358.399,389.924 358.399 C 389.636 358.398,389.045 357.868,388.611 357.221 C 388.178 356.573,387.778 356.088,387.724 356.143 C 387.526 356.341,375.326 344.106,375.079 343.462 C 374.939 343.098,374.539 342.800,374.189 342.800 C 373.839 342.800,373.664 342.620,373.800 342.400 C 373.936 342.180,373.848 342.000,373.605 342.000 C 373.005 342.000,371.188 340.146,371.491 339.842 C 371.624 339.709,371.553 339.600,371.333 339.600 C 371.112 339.600,370.132 338.812,369.155 337.848 C 366.101 334.837,366.149 335.155,368.386 332.750 C 369.486 331.568,370.389 330.470,370.393 330.311 C 370.397 330.151,371.255 329.166,372.300 328.121 C 373.345 327.076,374.110 326.177,374.000 326.123 C 373.890 326.070,374.115 325.658,374.500 325.208 C 374.885 324.759,375.200 324.213,375.200 323.995 C 375.200 323.778,375.338 323.600,375.506 323.600 C 375.674 323.600,376.249 322.891,376.784 322.025 C 377.320 321.159,377.902 320.540,378.079 320.649 C 378.255 320.758,378.400 320.559,378.400 320.207 C 378.400 319.855,378.760 319.180,379.200 318.708 C 379.640 318.236,380.000 317.602,380.000 317.301 C 380.000 316.999,380.150 316.845,380.332 316.958 C 380.515 317.071,380.909 316.542,381.207 315.782 C 381.505 315.022,381.896 314.400,382.075 314.400 C 382.254 314.400,382.400 314.029,382.400 313.576 C 382.400 313.123,382.547 312.844,382.727 312.955 C 382.907 313.066,383.279 312.537,383.553 311.779 C 383.827 311.020,384.220 310.400,384.426 310.400 C 384.632 310.400,384.800 310.164,384.800 309.875 C 384.800 309.587,385.167 308.957,385.616 308.475 C 386.064 307.994,386.306 307.600,386.154 307.600 C 386.001 307.600,386.143 307.285,386.469 306.900 C 386.795 306.515,387.280 305.435,387.547 304.500 C 387.814 303.565,388.205 302.800,388.416 302.800 C 388.627 302.800,388.800 302.566,388.800 302.280 C 388.800 301.544,389.741 299.607,390.100 299.603 C 390.265 299.601,390.400 299.240,390.400 298.800 C 390.400 298.360,390.599 298.000,390.843 298.000 C 391.086 298.000,391.184 297.736,391.060 297.413 C 390.936 297.090,391.007 296.719,391.217 296.589 C 391.428 296.459,391.600 295.924,391.600 295.400 C 391.600 294.876,391.780 294.336,392.000 294.200 C 392.220 294.064,392.400 293.603,392.400 293.176 C 392.400 292.749,392.580 292.400,392.800 292.400 C 393.020 292.400,393.200 291.860,393.200 291.200 C 393.200 290.540,393.380 290.000,393.600 290.000 C 393.820 290.000,394.000 289.550,394.000 289.000 C 394.000 288.450,394.180 288.000,394.400 288.000 C 394.620 288.000,394.800 287.561,394.800 287.024 C 394.800 286.487,394.980 285.936,395.200 285.800 C 395.420 285.664,395.600 285.034,395.600 284.400 C 395.600 283.766,395.780 283.136,396.000 283.000 C 396.220 282.864,396.400 282.144,396.400 281.400 C 396.400 280.656,396.580 279.936,396.800 279.800 C 397.020 279.664,397.200 278.854,397.200 278.000 C 397.200 277.146,397.380 276.336,397.600 276.200 C 397.820 276.064,398.000 275.233,398.000 274.353 C 398.000 273.473,398.165 272.855,398.366 272.979 C 398.567 273.103,398.826 272.079,398.941 270.702 C 399.057 269.326,399.331 266.850,399.551 265.200 C 400.061 261.368,400.059 239.673,399.548 235.200 C 399.334 233.330,399.063 230.584,398.947 229.097 C 398.830 227.610,398.569 226.496,398.367 226.620 C 398.165 226.745,398.000 226.028,398.000 225.024 C 398.000 224.021,397.820 223.200,397.600 223.200 C 397.380 223.200,397.200 222.480,397.200 221.600 C 397.200 220.720,397.040 220.000,396.844 220.000 C 396.648 220.000,396.386 219.415,396.263 218.700 C 395.742 215.688,395.490 214.800,395.155 214.800 C 394.960 214.800,394.800 214.159,394.800 213.376 C 394.800 212.529,394.638 212.053,394.400 212.200 C 394.161 212.347,394.000 211.863,394.000 211.000 C 394.000 210.137,393.839 209.653,393.600 209.800 C 393.367 209.944,393.200 209.537,393.200 208.824 C 393.200 208.151,393.020 207.600,392.800 207.600 C 392.580 207.600,392.400 207.049,392.400 206.376 C 392.400 205.663,392.233 205.256,392.000 205.400 C 391.780 205.536,391.600 205.267,391.600 204.802 C 391.600 204.337,391.256 203.201,390.836 202.278 C 390.415 201.355,390.029 200.420,389.977 200.200 C 389.926 199.980,389.460 199.129,388.942 198.308 C 388.424 197.487,388.000 196.643,388.000 196.431 C 388.000 195.919,386.312 193.036,385.913 192.867 C 385.741 192.793,385.600 192.388,385.600 191.967 C 385.600 191.545,385.420 191.200,385.200 191.200 C 384.980 191.200,384.800 190.930,384.800 190.600 C 384.800 190.270,384.620 190.000,384.400 190.000 C 384.180 190.000,384.000 189.730,384.000 189.400 C 384.000 189.070,383.790 188.800,383.533 188.800 C 383.277 188.800,383.185 188.682,383.330 188.537 C 383.475 188.392,383.391 188.030,383.144 187.732 C 382.505 186.963,381.221 184.727,380.942 183.900 C 380.813 183.515,380.548 183.200,380.353 183.200 C 380.159 183.200,380.000 182.930,380.000 182.600 C 380.000 182.270,379.820 182.000,379.600 182.000 C 379.380 182.000,379.200 181.770,379.200 181.488 C 379.200 181.207,378.840 180.717,378.400 180.400 C 377.960 180.083,377.600 179.595,377.600 179.315 C 377.600 179.036,377.240 178.582,376.800 178.307 C 376.360 178.032,376.000 177.608,376.000 177.363 C 376.000 177.119,375.459 176.353,374.798 175.661 C 374.137 174.969,373.609 174.358,373.624 174.302 C 373.745 173.856,372.844 172.406,371.882 171.500 C 371.240 170.895,370.869 170.394,371.058 170.387 C 371.246 170.379,370.975 170.019,370.456 169.587 C 369.936 169.154,369.576 168.800,369.656 168.800 C 369.875 168.801,360.692 159.598,358.880 158.000 C 358.006 157.230,357.372 156.465,357.469 156.300 C 357.567 156.135,357.444 156.000,357.195 156.000 C 356.585 156.000,355.576 154.958,355.886 154.648 C 356.022 154.511,355.823 154.400,355.443 154.400 C 355.063 154.400,354.864 154.220,355.000 154.000 C 355.136 153.780,354.959 153.600,354.608 153.600 C 354.256 153.600,353.283 152.880,352.446 152.000 C 350.768 150.236,350.024 150.029,349.334 151.133 M196.378 183.900 L 195.000 185.400 196.500 184.022 C 197.325 183.263,198.000 182.588,198.000 182.522 C 198.000 182.216,197.662 182.504,196.378 183.900 " stroke="none" fill="#63b3f4" fill-rule="evenodd"></path><path id="path2" d="M145.841 12.293 C 145.558 12.576,143.052 12.882,136.400 13.445 C 134.970 13.566,133.629 13.830,133.420 14.032 C 133.211 14.235,131.917 14.400,130.544 14.400 C 129.171 14.400,127.948 14.561,127.826 14.758 C 127.618 15.094,126.589 15.306,122.500 15.853 C 121.565 15.978,120.800 16.242,120.800 16.440 C 120.800 16.638,120.001 16.800,119.024 16.800 C 118.047 16.800,117.136 16.980,117.000 17.200 C 116.864 17.420,116.144 17.600,115.400 17.600 C 114.656 17.600,113.936 17.780,113.800 18.000 C 113.664 18.220,113.023 18.400,112.376 18.400 C 111.729 18.400,111.200 18.580,111.200 18.800 C 111.200 19.020,110.750 19.200,110.200 19.200 C 109.650 19.200,109.200 19.343,109.200 19.518 C 109.200 19.693,108.525 19.881,107.700 19.936 C 106.875 19.990,106.140 20.207,106.067 20.418 C 105.993 20.628,105.408 20.800,104.767 20.800 C 104.125 20.800,103.600 20.980,103.600 21.200 C 103.600 21.420,103.060 21.600,102.400 21.600 C 101.740 21.600,101.200 21.780,101.200 22.000 C 101.200 22.220,100.660 22.400,100.000 22.400 C 99.340 22.400,98.800 22.580,98.800 22.800 C 98.800 23.020,98.260 23.200,97.600 23.200 C 96.940 23.200,96.400 23.380,96.400 23.600 C 96.400 23.820,96.040 24.000,95.600 24.000 C 95.160 24.000,94.800 24.180,94.800 24.400 C 94.800 24.620,94.361 24.800,93.824 24.800 C 93.287 24.800,92.734 24.983,92.596 25.207 C 92.458 25.430,92.190 25.517,92.000 25.400 C 91.810 25.283,91.542 25.370,91.404 25.593 C 91.266 25.817,90.891 26.000,90.572 26.000 C 90.011 26.000,88.411 26.654,84.200 28.604 C 83.100 29.113,81.480 29.851,80.600 30.244 C 79.720 30.637,78.910 31.062,78.800 31.189 C 78.690 31.316,77.745 31.865,76.700 32.409 C 75.655 32.953,74.800 33.534,74.800 33.699 C 74.800 33.865,74.440 34.000,74.000 34.000 C 73.560 34.000,73.200 34.180,73.200 34.400 C 73.200 34.620,72.840 34.800,72.400 34.800 C 71.960 34.800,71.600 34.980,71.600 35.200 C 71.600 35.420,71.322 35.600,70.983 35.600 C 70.644 35.600,69.980 35.960,69.508 36.400 C 69.036 36.840,68.413 37.200,68.125 37.200 C 67.836 37.200,67.600 37.380,67.600 37.600 C 67.600 37.820,67.364 38.000,67.075 38.000 C 66.787 38.000,66.164 38.360,65.692 38.800 C 65.220 39.240,64.596 39.600,64.305 39.600 C 64.014 39.600,63.517 39.960,63.200 40.400 C 62.883 40.840,62.303 41.200,61.912 41.200 C 61.520 41.200,61.200 41.380,61.200 41.600 C 61.200 41.820,60.985 42.000,60.722 42.000 C 60.068 42.000,57.236 43.955,55.940 45.300 C 55.356 45.905,54.663 46.400,54.400 46.400 C 54.137 46.400,53.417 46.940,52.800 47.600 C 52.183 48.260,51.516 48.800,51.318 48.800 C 51.119 48.800,50.269 49.430,49.428 50.200 C 48.587 50.970,47.779 51.600,47.632 51.600 C 47.484 51.600,46.259 52.725,44.909 54.100 C 43.560 55.475,41.747 57.320,40.881 58.200 C 40.015 59.080,39.069 59.856,38.779 59.925 C 38.488 59.994,37.519 60.857,36.625 61.844 C 35.731 62.831,33.785 64.913,32.300 66.472 C 30.815 68.031,29.600 69.443,29.600 69.611 C 29.600 69.779,28.784 70.780,27.787 71.836 C 26.790 72.891,26.064 73.990,26.174 74.277 C 26.285 74.565,26.123 74.800,25.814 74.800 C 25.506 74.800,25.140 75.160,25.000 75.600 C 24.860 76.040,24.578 76.400,24.373 76.400 C 24.168 76.400,24.000 76.578,24.000 76.795 C 24.000 77.167,23.240 78.215,22.100 79.416 C 21.825 79.706,21.600 80.136,21.600 80.371 C 21.600 80.607,21.450 80.800,21.268 80.800 C 21.085 80.800,20.681 81.295,20.370 81.900 C 20.060 82.505,19.489 83.291,19.103 83.647 C 18.716 84.003,18.400 84.588,18.400 84.947 C 18.400 85.306,18.220 85.600,18.000 85.600 C 17.780 85.600,17.600 85.960,17.600 86.400 C 17.600 86.840,17.442 87.200,17.249 87.200 C 17.055 87.200,16.673 87.740,16.400 88.400 C 16.127 89.060,15.745 89.600,15.551 89.600 C 15.358 89.600,15.200 89.960,15.200 90.400 C 15.200 90.840,15.020 91.200,14.800 91.200 C 14.580 91.200,14.400 91.560,14.400 92.000 C 14.400 92.440,14.248 92.800,14.063 92.800 C 13.877 92.800,13.295 93.655,12.768 94.700 C 12.242 95.745,11.717 96.690,11.603 96.800 C 11.489 96.910,11.147 97.720,10.843 98.600 C 10.539 99.480,9.865 101.089,9.345 102.175 C 8.825 103.261,8.400 104.566,8.400 105.075 C 8.400 105.584,8.220 106.000,8.000 106.000 C 7.780 106.000,7.600 106.360,7.600 106.800 C 7.600 107.240,7.420 107.600,7.200 107.600 C 6.980 107.600,6.800 108.039,6.800 108.576 C 6.800 109.113,6.620 109.664,6.400 109.800 C 6.180 109.936,6.000 110.487,6.000 111.024 C 6.000 111.561,5.820 112.000,5.600 112.000 C 5.380 112.000,5.200 112.540,5.200 113.200 C 5.200 113.860,5.020 114.400,4.800 114.400 C 4.580 114.400,4.400 114.940,4.400 115.600 C 4.400 116.260,4.220 116.800,4.000 116.800 C 3.780 116.800,3.600 117.520,3.600 118.400 C 3.600 119.280,3.420 120.000,3.200 120.000 C 2.980 120.000,2.800 120.720,2.800 121.600 C 2.800 122.480,2.620 123.200,2.400 123.200 C 2.180 123.200,2.000 123.920,2.000 124.800 C 2.000 125.680,1.820 126.400,1.600 126.400 C 1.380 126.400,1.200 127.375,1.200 128.567 C 1.200 129.944,1.018 130.794,0.700 130.900 C -0.030 131.143,-0.030 168.056,0.700 168.300 C 1.031 168.410,1.200 169.336,1.200 171.033 C 1.200 172.478,1.375 173.600,1.600 173.600 C 1.820 173.600,2.000 174.320,2.000 175.200 C 2.000 176.080,2.180 176.800,2.400 176.800 C 2.620 176.800,2.800 177.520,2.800 178.400 C 2.800 179.280,2.980 180.000,3.200 180.000 C 3.420 180.000,3.600 180.720,3.600 181.600 C 3.600 182.480,3.780 183.200,4.000 183.200 C 4.220 183.200,4.400 183.740,4.400 184.400 C 4.400 185.060,4.580 185.600,4.800 185.600 C 5.020 185.600,5.200 186.140,5.200 186.800 C 5.200 187.460,5.380 188.000,5.600 188.000 C 5.820 188.000,6.000 188.540,6.000 189.200 C 6.000 189.860,6.180 190.400,6.400 190.400 C 6.620 190.400,6.800 190.850,6.800 191.400 C 6.800 191.950,6.980 192.400,7.200 192.400 C 7.420 192.400,7.600 192.940,7.600 193.600 C 7.600 194.260,7.780 194.800,8.000 194.800 C 8.220 194.800,8.400 195.030,8.400 195.312 C 8.400 195.745,9.803 199.292,11.717 203.700 C 11.980 204.305,12.331 204.800,12.498 204.800 C 12.664 204.800,12.800 205.087,12.800 205.438 C 12.800 206.092,14.320 208.494,14.886 208.733 C 15.058 208.807,15.200 209.212,15.200 209.633 C 15.200 210.055,15.380 210.400,15.600 210.400 C 15.820 210.400,16.000 210.760,16.000 211.200 C 16.000 211.640,16.180 212.000,16.400 212.000 C 16.620 212.000,16.800 212.236,16.800 212.525 C 16.800 212.813,17.160 213.436,17.600 213.908 C 18.040 214.380,18.400 215.044,18.400 215.383 C 18.400 215.722,18.580 216.000,18.800 216.000 C 19.020 216.000,19.200 216.243,19.200 216.541 C 19.200 216.838,19.740 217.646,20.400 218.337 C 21.060 219.028,21.600 219.825,21.600 220.108 C 21.600 220.391,21.960 220.883,22.400 221.200 C 22.840 221.517,23.200 222.007,23.200 222.288 C 23.200 222.570,23.380 222.800,23.600 222.800 C 23.820 222.800,24.000 223.030,24.000 223.312 C 24.000 223.593,24.360 224.083,24.800 224.400 C 25.240 224.717,25.600 225.192,25.600 225.456 C 25.600 225.719,26.309 226.672,27.175 227.574 C 28.042 228.476,28.864 229.571,29.002 230.007 C 29.141 230.443,29.542 230.800,29.894 230.800 C 30.245 230.800,30.421 230.912,30.285 231.049 C 30.148 231.185,30.748 231.981,31.618 232.817 C 33.800 234.914,34.837 233.583,17.600 250.820 C 9.020 259.401,2.000 266.620,2.000 266.864 C 2.000 267.107,1.595 267.657,1.100 268.087 C 0.240 268.833,0.200 269.138,0.200 275.000 C 0.200 280.862,0.240 281.167,1.100 281.913 C 1.595 282.343,2.000 282.906,2.000 283.165 C 2.000 283.787,3.846 285.621,4.158 285.309 C 4.291 285.176,4.400 285.247,4.400 285.468 C 4.400 285.689,5.379 286.349,6.575 286.935 L 8.750 288.000 94.375 288.000 C 151.192 288.000,180.000 287.865,180.000 287.600 C 180.000 287.369,181.259 287.200,182.976 287.200 C 184.613 287.200,186.064 287.020,186.200 286.800 C 186.336 286.580,187.607 286.400,189.024 286.400 C 190.475 286.400,191.600 286.225,191.600 286.000 C 191.600 285.771,192.800 285.600,194.400 285.600 C 196.000 285.600,197.200 285.429,197.200 285.200 C 197.200 284.980,197.909 284.800,198.776 284.800 C 199.643 284.800,200.464 284.620,200.600 284.400 C 200.736 284.180,201.647 284.000,202.624 284.000 C 203.601 284.000,204.400 283.820,204.400 283.600 C 204.400 283.380,205.210 283.200,206.200 283.200 C 207.190 283.200,208.000 283.020,208.000 282.800 C 208.000 282.580,208.720 282.400,209.600 282.400 C 210.480 282.400,211.200 282.220,211.200 282.000 C 211.200 281.780,211.740 281.600,212.400 281.600 C 213.060 281.600,213.600 281.420,213.600 281.200 C 213.600 280.980,214.331 280.800,215.224 280.800 C 216.204 280.800,216.749 280.642,216.600 280.400 C 216.453 280.162,216.929 280.000,217.776 280.000 C 218.559 280.000,219.200 279.820,219.200 279.600 C 219.200 279.380,219.639 279.200,220.176 279.200 C 220.713 279.200,221.264 279.020,221.400 278.800 C 221.536 278.580,222.177 278.400,222.824 278.400 C 223.471 278.400,224.000 278.220,224.000 278.000 C 224.000 277.780,224.641 277.600,225.424 277.600 C 226.271 277.600,226.747 277.438,226.600 277.200 C 226.460 276.973,226.796 276.800,227.376 276.800 C 227.939 276.800,228.400 276.620,228.400 276.400 C 228.400 276.180,228.760 276.000,229.200 276.000 C 229.640 276.000,230.000 275.820,230.000 275.600 C 230.000 275.380,230.495 275.199,231.100 275.198 C 231.705 275.196,232.716 274.926,233.346 274.598 C 233.976 274.269,234.653 274.000,234.850 274.000 C 235.203 274.000,238.338 272.685,239.695 271.967 C 240.077 271.765,240.584 271.600,240.823 271.600 C 241.062 271.600,241.529 271.328,241.861 270.996 C 242.193 270.664,242.630 270.495,242.832 270.620 C 243.035 270.745,243.200 270.690,243.200 270.498 C 243.200 270.306,243.830 269.902,244.600 269.600 C 245.370 269.298,246.000 268.904,246.000 268.725 C 246.000 268.546,246.315 268.396,246.700 268.391 C 247.085 268.386,247.850 268.030,248.400 267.600 C 248.950 267.170,249.625 266.814,249.900 266.809 C 250.175 266.804,250.400 266.620,250.400 266.400 C 250.400 266.180,250.760 266.000,251.200 266.000 C 251.640 266.000,252.000 265.820,252.000 265.600 C 252.000 265.380,252.360 265.200,252.800 265.200 C 253.240 265.200,253.600 265.020,253.600 264.800 C 253.600 264.580,253.960 264.400,254.400 264.400 C 254.840 264.400,255.200 264.220,255.200 264.000 C 255.200 263.780,255.470 263.600,255.800 263.600 C 256.130 263.600,256.400 263.420,256.400 263.200 C 256.400 262.980,256.670 262.800,257.000 262.800 C 257.330 262.800,257.600 262.620,257.600 262.400 C 257.600 262.180,257.830 262.000,258.112 262.000 C 258.393 262.000,258.883 261.640,259.200 261.200 C 259.517 260.760,260.057 260.400,260.400 260.400 C 260.743 260.400,261.283 260.040,261.600 259.600 C 261.917 259.160,262.416 258.800,262.708 258.800 C 263.385 258.800,265.592 257.665,266.309 256.948 C 266.610 256.647,266.987 256.400,267.145 256.400 C 267.304 256.400,268.101 255.770,268.918 255.000 C 269.734 254.230,270.555 253.600,270.742 253.600 C 270.928 253.600,271.646 253.060,272.337 252.400 C 273.028 251.740,273.702 251.200,273.836 251.200 C 273.970 251.200,274.583 250.660,275.200 250.000 C 275.817 249.340,276.521 248.800,276.766 248.800 C 277.010 248.800,278.906 247.135,280.979 245.100 C 283.052 243.065,284.985 241.215,285.274 240.988 C 285.563 240.761,286.455 240.080,287.256 239.474 C 288.057 238.868,289.157 237.703,289.700 236.886 C 290.243 236.069,291.433 234.635,292.344 233.700 C 293.255 232.764,294.000 231.809,294.000 231.576 C 294.000 231.343,294.153 231.247,294.340 231.363 C 294.527 231.478,294.932 231.084,295.240 230.486 C 295.548 229.889,296.475 228.739,297.300 227.931 C 298.125 227.124,298.800 226.270,298.800 226.035 C 298.800 225.800,299.340 225.091,300.000 224.460 C 300.660 223.829,301.200 223.148,301.200 222.945 C 301.200 222.742,301.560 222.317,302.000 222.000 C 302.440 221.683,302.800 221.238,302.801 221.012 C 302.801 220.785,303.341 219.970,304.000 219.200 C 304.659 218.430,305.199 217.657,305.199 217.483 C 305.200 217.309,305.560 216.780,306.000 216.308 C 306.440 215.836,306.800 215.213,306.800 214.925 C 306.800 214.636,306.980 214.400,307.200 214.400 C 307.420 214.400,307.600 214.062,307.600 213.649 C 307.600 213.236,307.870 212.674,308.200 212.400 C 308.530 212.126,308.800 211.564,308.800 211.151 C 308.800 210.738,308.980 210.400,309.200 210.400 C 309.420 210.400,309.600 210.040,309.600 209.600 C 309.600 209.160,309.780 208.800,310.000 208.800 C 310.220 208.800,310.400 208.530,310.400 208.200 C 310.400 207.870,310.580 207.600,310.800 207.600 C 311.020 207.600,311.200 207.330,311.200 207.000 C 311.200 206.670,311.380 206.400,311.600 206.400 C 311.820 206.400,312.000 206.130,312.000 205.800 C 312.000 205.470,312.180 205.200,312.400 205.200 C 312.620 205.200,312.800 204.840,312.800 204.400 C 312.800 203.960,312.980 203.600,313.200 203.600 C 313.420 203.600,313.600 203.251,313.600 202.824 C 313.600 202.397,313.780 201.936,314.000 201.800 C 314.220 201.664,314.400 201.113,314.400 200.576 C 314.400 200.039,314.580 199.600,314.800 199.600 C 315.020 199.600,315.200 199.240,315.200 198.800 C 315.200 198.360,315.380 198.000,315.600 198.000 C 315.820 198.000,316.000 197.640,316.000 197.200 C 316.000 196.760,316.180 196.400,316.400 196.400 C 316.620 196.400,316.800 195.860,316.800 195.200 C 316.800 194.540,316.980 194.000,317.200 194.000 C 317.420 194.000,317.600 193.640,317.600 193.200 C 317.600 192.760,317.780 192.400,318.000 192.400 C 318.220 192.400,318.400 191.950,318.400 191.400 C 318.400 190.850,318.580 190.400,318.800 190.400 C 319.020 190.400,319.203 190.085,319.206 189.700 C 319.213 188.882,320.127 186.139,320.526 185.741 C 320.677 185.590,320.800 184.957,320.800 184.333 C 320.800 183.710,320.980 183.200,321.200 183.200 C 321.420 183.200,321.600 182.480,321.600 181.600 C 321.600 180.720,321.780 180.000,322.000 180.000 C 322.220 180.000,322.400 179.280,322.400 178.400 C 322.400 177.520,322.562 176.800,322.760 176.800 C 322.958 176.800,323.219 176.035,323.341 175.100 C 323.463 174.165,323.750 172.320,323.979 171.000 C 324.966 165.313,325.157 161.902,325.157 150.000 C 325.157 138.098,324.966 134.687,323.979 129.000 C 323.750 127.680,323.463 125.835,323.341 124.900 C 323.219 123.965,322.958 123.200,322.760 123.200 C 322.562 123.200,322.400 122.581,322.400 121.824 C 322.400 121.067,322.220 120.336,322.000 120.200 C 321.780 120.064,321.600 119.243,321.600 118.376 C 321.600 117.509,321.420 116.800,321.200 116.800 C 320.980 116.800,320.800 116.348,320.800 115.795 C 320.800 115.242,320.592 114.387,320.338 113.895 C 319.324 111.935,319.200 111.572,319.200 110.582 C 319.200 109.998,319.027 109.660,318.800 109.800 C 318.567 109.944,318.400 109.537,318.400 108.824 C 318.400 108.151,318.220 107.600,318.000 107.600 C 317.780 107.600,317.600 107.255,317.600 106.833 C 317.600 106.412,317.422 106.007,317.203 105.933 C 316.985 105.860,316.766 105.305,316.716 104.700 C 316.666 104.095,316.485 103.600,316.313 103.600 C 316.141 103.600,316.000 103.240,316.000 102.800 C 316.000 102.360,315.820 102.000,315.600 102.000 C 315.380 102.000,315.200 101.640,315.200 101.200 C 315.200 100.760,315.020 100.400,314.800 100.400 C 314.580 100.400,314.400 99.950,314.400 99.400 C 314.400 98.850,314.220 98.400,314.000 98.400 C 313.780 98.400,313.600 98.051,313.600 97.624 C 313.600 97.197,313.420 96.736,313.200 96.600 C 312.980 96.464,312.800 96.003,312.800 95.576 C 312.800 95.149,312.620 94.800,312.400 94.800 C 312.180 94.800,312.000 94.612,312.000 94.383 C 312.000 94.154,311.640 93.580,311.200 93.108 C 310.760 92.636,310.400 92.013,310.400 91.725 C 310.400 91.436,310.220 91.200,310.000 91.200 C 309.780 91.200,309.600 90.840,309.600 90.400 C 309.600 89.960,309.420 89.600,309.200 89.600 C 308.980 89.600,308.800 89.253,308.800 88.829 C 308.800 88.404,308.574 87.819,308.298 87.529 C 308.021 87.238,307.363 86.145,306.835 85.100 C 306.306 84.055,305.723 83.200,305.537 83.200 C 305.352 83.200,305.193 82.975,305.184 82.700 C 305.175 82.425,304.635 81.577,303.984 80.815 C 303.333 80.053,302.800 79.238,302.800 79.003 C 302.800 78.769,302.440 78.317,302.000 78.000 C 301.560 77.683,301.200 77.265,301.200 77.072 C 301.200 76.879,300.660 76.217,300.000 75.600 C 299.340 74.983,298.800 74.267,298.800 74.008 C 298.800 73.749,298.080 72.846,297.200 72.000 C 296.320 71.154,295.600 70.293,295.600 70.085 C 295.600 69.877,294.655 68.708,293.500 67.486 C 292.345 66.264,290.960 64.691,290.423 63.992 C 289.111 62.284,287.632 60.808,286.023 59.600 C 285.290 59.050,283.007 56.935,280.950 54.900 C 278.893 52.865,277.026 51.200,276.802 51.200 C 276.410 51.200,275.615 50.557,272.473 47.700 C 271.687 46.985,270.889 46.400,270.700 46.400 C 270.511 46.400,269.786 45.866,269.088 45.214 C 268.390 44.562,267.230 43.711,266.510 43.323 C 265.789 42.935,265.200 42.479,265.200 42.309 C 265.200 42.139,264.840 42.000,264.400 42.000 C 263.960 42.000,263.600 41.820,263.600 41.600 C 263.600 41.380,263.280 41.200,262.888 41.200 C 262.497 41.200,261.917 40.840,261.600 40.400 C 261.283 39.960,260.743 39.600,260.400 39.600 C 260.057 39.600,259.517 39.240,259.200 38.800 C 258.883 38.360,258.393 38.000,258.112 38.000 C 257.830 38.000,257.600 37.820,257.600 37.600 C 257.600 37.380,257.229 37.200,256.776 37.200 C 256.323 37.200,256.064 37.020,256.200 36.800 C 256.336 36.580,256.167 36.400,255.824 36.400 C 255.481 36.400,255.200 36.220,255.200 36.000 C 255.200 35.780,254.840 35.600,254.400 35.600 C 253.960 35.600,253.600 35.420,253.600 35.200 C 253.600 34.980,253.240 34.800,252.800 34.800 C 252.360 34.800,252.000 34.620,252.000 34.400 C 252.000 34.180,251.640 34.000,251.200 34.000 C 250.760 34.000,250.400 33.841,250.400 33.647 C 250.400 33.452,250.085 33.193,249.700 33.071 C 249.315 32.949,248.550 32.587,248.000 32.265 C 247.450 31.944,246.145 31.258,245.100 30.741 C 244.055 30.224,243.200 29.666,243.200 29.501 C 243.200 29.335,242.840 29.200,242.400 29.200 C 241.960 29.200,241.600 29.020,241.600 28.800 C 241.600 28.580,241.328 28.400,240.995 28.400 C 240.662 28.400,239.987 28.192,239.495 27.938 C 237.492 26.902,237.153 26.782,236.818 26.989 C 236.626 27.108,236.405 27.016,236.328 26.785 C 236.251 26.554,235.741 26.336,235.194 26.301 C 234.647 26.267,234.110 26.140,234.000 26.019 C 233.468 25.436,231.906 24.800,231.005 24.800 C 230.452 24.800,230.000 24.620,230.000 24.400 C 230.000 24.180,229.640 24.000,229.200 24.000 C 228.760 24.000,228.400 23.820,228.400 23.600 C 228.400 23.380,227.860 23.200,227.200 23.200 C 226.540 23.200,226.000 23.020,226.000 22.800 C 226.000 22.580,225.550 22.400,225.000 22.400 C 224.450 22.400,224.000 22.220,224.000 22.000 C 224.000 21.780,223.460 21.600,222.800 21.600 C 222.140 21.600,221.600 21.420,221.600 21.200 C 221.600 20.980,221.071 20.800,220.424 20.800 C 219.777 20.800,219.136 20.620,219.000 20.400 C 218.864 20.180,218.133 20.000,217.376 20.000 C 216.619 20.000,216.000 19.820,216.000 19.600 C 216.000 19.380,215.460 19.200,214.800 19.200 C 214.140 19.200,213.600 19.020,213.600 18.800 C 213.600 18.580,213.060 18.400,212.400 18.400 C 211.740 18.400,211.200 18.220,211.200 18.000 C 211.200 17.780,210.491 17.600,209.624 17.600 C 208.757 17.600,207.936 17.420,207.800 17.200 C 207.664 16.980,206.843 16.800,205.976 16.800 C 205.109 16.800,204.400 16.620,204.400 16.400 C 204.400 16.180,203.601 16.000,202.624 16.000 C 201.647 16.000,200.736 15.820,200.600 15.600 C 200.464 15.380,199.643 15.200,198.776 15.200 C 197.909 15.200,197.200 15.020,197.200 14.800 C 197.200 14.571,196.000 14.400,194.400 14.400 C 192.800 14.400,191.600 14.229,191.600 14.000 C 191.600 13.772,190.408 13.600,188.824 13.600 C 187.297 13.600,185.936 13.420,185.800 13.200 C 185.664 12.980,184.314 12.800,182.800 12.800 C 181.286 12.800,179.940 12.627,179.810 12.415 C 179.524 11.954,146.298 11.835,145.841 12.293 M243.194 113.397 C 247.727 115.694,250.400 119.931,250.400 124.818 C 250.400 127.563,249.698 130.800,249.103 130.800 C 248.936 130.800,248.800 131.058,248.800 131.373 C 248.800 132.336,245.048 135.865,242.964 136.861 L 241.000 137.800 163.800 137.922 C 80.968 138.053,83.674 138.116,80.600 135.995 C 78.595 134.611,76.400 132.216,76.400 131.411 C 76.400 131.075,76.220 130.800,76.000 130.800 C 75.780 130.800,75.600 130.451,75.600 130.024 C 75.600 129.597,75.420 129.136,75.200 129.000 C 74.979 128.864,74.800 127.070,74.800 125.000 C 74.800 122.930,74.979 121.136,75.200 121.000 C 75.420 120.864,75.600 120.403,75.600 119.976 C 75.600 119.549,75.780 119.200,76.000 119.200 C 76.220 119.200,76.400 118.947,76.400 118.639 C 76.400 117.666,79.716 114.461,81.800 113.420 L 83.800 112.421 162.513 112.410 L 241.227 112.400 243.194 113.397 M193.194 163.397 C 197.727 165.694,200.400 169.931,200.400 174.818 C 200.400 177.563,199.698 180.800,199.103 180.800 C 198.936 180.800,198.800 181.058,198.800 181.373 C 198.800 182.336,195.048 185.865,192.964 186.861 L 191.000 187.800 137.600 187.800 L 84.200 187.800 81.969 186.704 C 79.633 185.557,76.400 182.491,76.400 181.423 C 76.400 181.081,76.220 180.800,76.000 180.800 C 75.780 180.800,75.600 180.451,75.600 180.024 C 75.600 179.597,75.420 179.136,75.200 179.000 C 74.979 178.864,74.800 177.070,74.800 175.000 C 74.800 172.930,74.979 171.136,75.200 171.000 C 75.420 170.864,75.600 170.403,75.600 169.976 C 75.600 169.549,75.780 169.200,76.000 169.200 C 76.220 169.200,76.400 168.947,76.400 168.639 C 76.400 167.666,79.716 164.461,81.800 163.420 L 83.800 162.421 137.513 162.410 L 191.227 162.400 193.194 163.397 " stroke="none" fill="#2494f4" fill-rule="evenodd"></path><path id="path3" d="M78.867 115.500 L 77.365 117.000 78.782 115.801 C 79.562 115.142,80.371 114.467,80.580 114.301 C 80.789 114.135,80.827 114.000,80.665 114.000 C 80.502 114.000,79.693 114.675,78.867 115.500 M247.881 117.761 C 248.277 118.289,248.657 118.667,248.728 118.600 C 248.938 118.399,247.834 116.800,247.485 116.800 C 247.308 116.800,247.486 117.232,247.881 117.761 M249.882 122.421 C 250.008 123.399,250.175 124.275,250.255 124.367 C 250.581 124.742,250.360 121.755,250.021 121.221 C 249.784 120.846,249.735 121.270,249.882 122.421 M250.064 126.667 C 250.029 127.364,249.896 128.264,249.770 128.667 C 249.553 129.359,249.565 129.360,249.994 128.691 C 250.245 128.302,250.377 127.402,250.289 126.691 L 250.128 125.400 250.064 126.667 M78.400 134.200 C 79.146 134.970,79.847 135.600,79.957 135.600 C 80.067 135.600,79.546 134.970,78.800 134.200 C 78.054 133.430,77.353 132.800,77.243 132.800 C 77.133 132.800,77.654 133.430,78.400 134.200 M81.200 136.356 C 81.750 136.811,82.470 137.185,82.800 137.189 C 83.326 137.194,83.006 136.981,80.701 135.790 C 80.426 135.647,80.650 135.902,81.200 136.356 M123.668 137.900 C 144.936 137.957,179.856 137.957,201.268 137.900 C 222.681 137.843,205.280 137.796,162.600 137.796 C 119.920 137.796,102.401 137.843,123.668 137.900 M78.867 165.500 L 77.365 167.000 78.782 165.801 C 79.562 165.142,80.371 164.467,80.580 164.301 C 80.789 164.135,80.827 164.000,80.665 164.000 C 80.502 164.000,79.693 164.675,78.867 165.500 M199.882 172.421 C 200.008 173.399,200.175 174.275,200.255 174.367 C 200.581 174.742,200.360 171.755,200.021 171.221 C 199.784 170.846,199.735 171.270,199.882 172.421 M200.064 176.667 C 200.029 177.364,199.896 178.264,199.770 178.667 C 199.553 179.359,199.565 179.360,199.994 178.691 C 200.245 178.302,200.377 177.402,200.289 176.691 L 200.128 175.400 200.064 176.667 M78.400 184.200 C 79.146 184.970,79.847 185.600,79.957 185.600 C 80.067 185.600,79.546 184.970,78.800 184.200 C 78.054 183.430,77.353 182.800,77.243 182.800 C 77.133 182.800,77.654 183.430,78.400 184.200 M111.300 187.900 C 125.765 187.958,149.435 187.958,163.900 187.900 C 178.365 187.842,166.530 187.794,137.600 187.794 C 108.670 187.794,96.835 187.842,111.300 187.900 M222.100 387.876 C 222.485 387.976,223.115 387.976,223.500 387.876 C 223.885 387.775,223.570 387.693,222.800 387.693 C 222.030 387.693,221.715 387.775,222.100 387.876 " stroke="none" fill="#44a4f4" fill-rule="evenodd"></path><path id="path4" d="M83.959 112.942 C 76.717 115.244,72.999 123.413,76.136 130.131 C 77.615 133.298,81.447 136.850,83.312 136.782 C 83.580 136.773,83.080 136.393,82.200 135.938 C 72.873 131.121,73.194 118.274,82.751 113.855 L 84.600 113.000 161.600 112.882 C 242.141 112.758,239.940 112.715,243.568 114.517 C 245.317 115.386,248.103 118.434,248.611 120.033 C 248.755 120.488,248.959 120.774,249.064 120.669 C 249.680 120.053,246.868 116.361,244.331 114.456 C 241.422 112.271,246.502 112.396,162.406 112.442 C 105.771 112.473,85.019 112.605,83.959 112.942 M249.438 122.600 C 249.770 124.584,250.002 124.904,249.994 123.367 C 249.991 122.725,249.804 121.930,249.579 121.600 C 249.286 121.170,249.246 121.454,249.438 122.600 M249.356 127.412 C 249.116 128.506,248.771 129.745,248.591 130.166 C 248.379 130.663,248.409 130.842,248.677 130.676 C 249.216 130.343,250.118 127.107,249.935 126.160 C 249.858 125.756,249.597 126.319,249.356 127.412 M246.184 133.383 C 244.760 134.864,243.490 135.733,241.858 136.344 L 239.549 137.208 161.813 137.104 C 119.058 137.047,84.284 137.132,84.538 137.294 C 85.424 137.858,239.639 137.647,241.200 137.079 C 243.986 136.067,248.400 132.591,248.400 131.409 C 248.400 131.089,248.338 131.144,246.184 133.383 M84.000 162.949 C 75.012 165.932,71.981 176.934,78.340 183.493 C 79.773 184.971,82.539 186.809,83.292 186.782 C 83.571 186.773,83.080 186.393,82.200 185.938 C 72.873 181.121,73.194 168.274,82.751 163.855 L 84.600 163.000 136.600 162.885 C 176.506 162.797,189.019 162.884,190.400 163.258 C 195.200 164.556,198.192 167.623,199.469 172.553 L 199.998 174.600 199.836 172.894 C 199.443 168.751,196.088 164.841,191.485 163.158 C 188.943 162.229,86.767 162.030,84.000 162.949 M199.422 177.422 C 199.272 178.225,199.238 178.972,199.348 179.082 C 199.458 179.192,199.672 178.625,199.822 177.822 C 199.973 177.019,200.006 176.273,199.896 176.163 C 199.786 176.053,199.573 176.619,199.422 177.422 M196.184 183.383 C 194.759 184.866,193.491 185.733,191.854 186.346 L 189.539 187.212 136.808 187.106 C 107.805 187.048,84.284 187.132,84.538 187.294 C 85.421 187.856,189.640 187.646,191.200 187.079 C 193.986 186.067,198.400 182.591,198.400 181.409 C 198.400 181.089,198.338 181.144,196.184 183.383 " stroke="none" fill="#84c4f4" fill-rule="evenodd"></path></g></svg>